<?xml version="1.0" encoding="UTF-8" standalone="no"?>
<svg
   xmlns:dc="http://purl.org/dc/elements/1.1/"
   xmlns:cc="http://creativecommons.org/ns#"
   xmlns:rdf="http://www.w3.org/1999/02/22-rdf-syntax-ns#"
   xmlns:svg="http://www.w3.org/2000/svg"
   xmlns="http://www.w3.org/2000/svg"
   xmlns:sodipodi="http://sodipodi.sourceforge.net/DTD/sodipodi-0.dtd"
   xmlns:inkscape="http://www.inkscape.org/namespaces/inkscape"
   version="1.1"
   id="svg3"
   sodipodi:docname="icon_darkmode.svg"
   width="21"
   height="21"
   inkscape:version="0.92.3 (2405546, 2018-03-11)"><metadata
   id="metadata9">
  <rdf:RDF>
    <cc:Work
       rdf:about="">
      <dc:format>image/svg+xml</dc:format>
      <dc:type
         rdf:resource="http://purl.org/dc/dcmitype/StillImage" />
      <dc:title />
    </cc:Work>
  </rdf:RDF>
</metadata>
<defs
   id="defs7" />
<sodipodi:namedview
   pagecolor="#ffffff"
   bordercolor="#666666"
   borderopacity="1"
   objecttolerance="10"
   gridtolerance="10"
   guidetolerance="10"
   inkscape:pageopacity="0"
   inkscape:pageshadow="2"
   inkscape:window-width="2496"
   inkscape:window-height="1417"
   id="namedview5"
   showgrid="false"
   inkscape:zoom="37.76"
   inkscape:cx="15.295247"
   inkscape:cy="9.4466206"
   inkscape:window-x="56"
   inkscape:window-y="-8"
   inkscape:window-maximized="1"
   inkscape:current-layer="svg3"
   fit-margin-top="0"
   fit-margin-left="0"
   fit-margin-right="0"
   fit-margin-bottom="0" />


width=&quot;25mm&quot;
height=&quot;25mm&quot;
<path
   style="stroke-width:0.0529661;fill:none"
   d="M 9.3354717,20.910911 C 5.8117238,20.513491 2.7053115,18.329012 1.1116165,15.127765 -0.31491684,12.262293 -0.32946389,8.8598731 1.0723922,5.9535664 2.4995483,2.9948083 5.1704727,0.92396946 8.461531,0.22457019 9.1096714,0.08683063 9.2293737,0.07818175 10.500726,0.07723153 c 1.278895,-9.5587e-4 1.38721,0.0068166 2.039195,0.14632919 1.597803,0.34189958 2.993533,0.96830838 4.235783,1.90103498 3.390986,2.5460767 4.924405,6.9084914 3.863567,10.9914363 -0.692531,2.665407 -2.46245,5.013398 -4.828986,6.406179 -1.285013,0.75627 -2.709647,1.227156 -4.208425,1.391014 -0.589456,0.06444 -1.6843814,0.06333 -2.2663883,-0.0023 z m 2.8601693,-2.056139 c 1.152353,-0.253045 2.108154,-0.65485 3.056457,-1.284892 0.76742,-0.509865 1.818096,-1.555004 2.30793,-2.295765 1.491782,-2.255978 1.85575,-4.951011 1.011814,-7.4920803 C 18.228223,6.7474033 17.70687,5.829683 16.953868,4.933969 16.751826,4.6936353 16.557881,4.4969986 16.522879,4.4969986 c -0.035,0 -2.764802,2.7012389 -6.06622,6.0027534 l -6.002579,6.002754 0.3865006,0.35784 c 1.0359557,0.959136 2.5146395,1.696843 3.9841416,1.987664 0.7839842,0.155155 0.7671626,0.153936 1.8613848,0.134828 0.773257,-0.0135 1.122905,-0.04317 1.509534,-0.128066 z"
   id="path30"
   inkscape:connector-curvature="0" />
<g
   transform="matrix(3.7795276,0,0,3.7795276,-521.27248,-544.25461)"
   id="layer1"
   inkscape:label="Layer 1">
  <g
     id="text23"
     style="font-style:normal;font-variant:normal;font-weight:normal;font-stretch:normal;font-size:10.58333302px;line-height:1.25;font-family:Neucha;-inkscape-font-specification:Neucha;letter-spacing:0px;word-spacing:0px;fill:#253d25;fill-opacity:1;stroke:none;stroke-width:0.26458332"
     aria-label="blinddichten" />
  <g
     transform="translate(2.8961635,-1.3446494)"
     id="g848" />
</g>
<path
   style="fill:#41403f;fill-opacity:0.94117647;stroke:none;stroke-width:18.12661362;stroke-linejoin:round;stroke-miterlimit:4;stroke-dasharray:none;stroke-opacity:1;paint-order:normal"
   d="M 8.4140625,0.824616 C 6.5202265,1.0733259 4.7689151,2.1147989 3.299089,3.2799077 1.296162,4.9718811 0.04160837,7.6098008 0.33583947,10.254569 c 0.0773521,1.823382 0.0914314,3.760408 0.95272293,5.413886 0.9690597,1.545844 2.6014136,2.481139 4.0778077,3.473011 1.8095532,0.956046 3.3309771,1.013929 5.3134309,1.251039 -0.493012,-0.03848 1.775197,0.189654 2.308349,0.01076 1.478536,-0.213403 2.815195,-0.893919 3.699199,-2.102967 C 18.1653,16.445758 19.611552,14.466007 20.170667,12.1181 20.854144,9.9632979 21.107922,7.4992186 19.983119,5.4409334 18.881763,3.1320402 16.677638,1.202432 14.03924,1.0536102 11.902214,0.93932991 10.292474,0.74768339 8.4140625,0.824616 Z M 18.733536,8.8994263 c -0.177702,2.4156117 -0.83226,4.8488567 -2.300788,6.8115327 -0.701912,1.027804 -1.490106,1.851848 -2.322219,2.774527 -0.912578,0.515382 -1.480769,0.743522 -2.620171,0.777236 C 9.7761415,19.282342 7.9184961,19.006023 6.41255,18.099304 5.4262402,17.450733 4.9625614,17.335208 4.1209039,16.506458 4.549961,16.237766 4.9706372,15.438222 5.5139361,14.95618 7.3511157,12.501215 9.4951012,10.286206 11.714188,8.1753817 c 1.618619,-1.5571883 3.40172,-2.9290494 5.116316,-4.3719567 1.294875,0.6842869 1.929822,3.7109646 1.903032,5.0960013 z"
   id="path849"
   inkscape:connector-curvature="0"
   sodipodi:nodetypes="cccccccccccccccccccccc" />
</svg>
