<?xml version="1.0" encoding="UTF-8" standalone="no"?>
<svg
   xmlns:dc="http://purl.org/dc/elements/1.1/"
   xmlns:cc="http://creativecommons.org/ns#"
   xmlns:rdf="http://www.w3.org/1999/02/22-rdf-syntax-ns#"
   xmlns:svg="http://www.w3.org/2000/svg"
   xmlns="http://www.w3.org/2000/svg"
   xmlns:sodipodi="http://sodipodi.sourceforge.net/DTD/sodipodi-0.dtd"
   xmlns:inkscape="http://www.inkscape.org/namespaces/inkscape"
   version="1.1"
   id="svg3"
   sodipodi:docname="icon_darkmode.svg"
   width="21"
   height="21"
   inkscape:version="0.92.5 (2060ec1f9f, 2020-04-08)"><metadata
   id="metadata9">
  <rdf:RDF>
    <cc:Work
       rdf:about="">
      <dc:format>image/svg+xml</dc:format>
      <dc:type
         rdf:resource="http://purl.org/dc/dcmitype/StillImage" />
      <dc:title></dc:title>
    </cc:Work>
  </rdf:RDF>
</metadata>
<defs
   id="defs7" />
<sodipodi:namedview
   pagecolor="#ffffff"
   bordercolor="#666666"
   borderopacity="1"
   objecttolerance="10"
   gridtolerance="10"
   guidetolerance="10"
   inkscape:pageopacity="0"
   inkscape:pageshadow="2"
   inkscape:window-width="1920"
   inkscape:window-height="1027"
   id="namedview5"
   showgrid="false"
   inkscape:zoom="18.88"
   inkscape:cx="14.888766"
   inkscape:cy="7.5067561"
   inkscape:window-x="0"
   inkscape:window-y="24"
   inkscape:window-maximized="1"
   inkscape:current-layer="svg3"
   fit-margin-top="0"
   fit-margin-left="0"
   fit-margin-right="0"
   fit-margin-bottom="0" />

width=&quot;25mm&quot;
height=&quot;25mm&quot;
<path
   id="darkmode-toggle"
   d="m 17.925,3.075 c 4.1,4.1 4.1,10.75 0,14.85 -4.1,4.1 -10.75,4.1 -14.85,0 -4.1,-4.1 -4.1,-10.75 0,-14.85 4.1,-4.1 10.75,-4.1 14.85,0 z M 16.51,16.51 a 8.5,8.5 0 0 0 0,-12.02 L 4.49,16.51 a 8.5,8.5 0 0 0 12.02,0 z"
   inkscape:connector-curvature="0"
   style="stroke:none;stroke-opacity:1;fill:#7aa667;fill-opacity:1" />
<path
   style="stroke-width:0.0529661;fill:none"
   d="M 9.3354717,20.910911 C 5.8117238,20.513491 2.7053115,18.329012 1.1116165,15.127765 -0.31491684,12.262293 -0.32946389,8.8598731 1.0723922,5.9535664 2.4995483,2.9948083 5.1704727,0.92396946 8.461531,0.22457019 9.1096714,0.08683063 9.2293737,0.07818175 10.500726,0.07723153 c 1.278895,-9.5587e-4 1.38721,0.0068166 2.039195,0.14632919 1.597803,0.34189958 2.993533,0.96830838 4.235783,1.90103498 3.390986,2.5460767 4.924405,6.9084914 3.863567,10.9914363 -0.692531,2.665407 -2.46245,5.013398 -4.828986,6.406179 -1.285013,0.75627 -2.709647,1.227156 -4.208425,1.391014 -0.589456,0.06444 -1.6843814,0.06333 -2.2663883,-0.0023 z m 2.8601693,-2.056139 c 1.152353,-0.253045 2.108154,-0.65485 3.056457,-1.284892 0.76742,-0.509865 1.818096,-1.555004 2.30793,-2.295765 1.491782,-2.255978 1.85575,-4.951011 1.011814,-7.4920803 C 18.228223,6.7474033 17.70687,5.829683 16.953868,4.933969 16.751826,4.6936353 16.557881,4.4969986 16.522879,4.4969986 c -0.035,0 -2.764802,2.7012389 -6.06622,6.0027534 l -6.002579,6.002754 0.3865006,0.35784 c 1.0359557,0.959136 2.5146395,1.696843 3.9841416,1.987664 0.7839842,0.155155 0.7671626,0.153936 1.8613848,0.134828 0.773257,-0.0135 1.122905,-0.04317 1.509534,-0.128066 z"
   id="path30"
   inkscape:connector-curvature="0" />
<g
   transform="matrix(3.7795276,0,0,3.7795276,-521.27248,-544.25461)"
   id="layer1"
   inkscape:label="Layer 1">
  <g
     id="text23"
     style="font-style:normal;font-variant:normal;font-weight:normal;font-stretch:normal;font-size:10.58333302px;line-height:1.25;font-family:Neucha;-inkscape-font-specification:Neucha;letter-spacing:0px;word-spacing:0px;fill:#253d25;fill-opacity:1;stroke:none;stroke-width:0.26458332"
     aria-label="blinddichten" />
  <g
     transform="translate(2.8961635,-1.3446494)"
     id="g848" />
</g>
</svg>
