<?xml version="1.0" encoding="UTF-8" standalone="no"?>
<!-- Created with Inkscape (http://www.inkscape.org/) -->

<svg
   xmlns:dc="http://purl.org/dc/elements/1.1/"
   xmlns:cc="http://creativecommons.org/ns#"
   xmlns:rdf="http://www.w3.org/1999/02/22-rdf-syntax-ns#"
   xmlns:svg="http://www.w3.org/2000/svg"
   xmlns="http://www.w3.org/2000/svg"
   xmlns:sodipodi="http://sodipodi.sourceforge.net/DTD/sodipodi-0.dtd"
   xmlns:inkscape="http://www.inkscape.org/namespaces/inkscape"
   width="92.157684mm"
   height="15.252656mm"
   viewBox="0 0 92.157686 15.252657"
   version="1.1"
   id="svg8"
   sodipodi:docname="logo_header.svg"
   inkscape:version="0.92.3 (2405546, 2018-03-11)">
  <defs
     id="defs2" />
  <sodipodi:namedview
     id="base"
     pagecolor="#ffffff"
     bordercolor="#666666"
     borderopacity="1.0"
     inkscape:pageopacity="0.0"
     inkscape:pageshadow="2"
     inkscape:zoom="2.8"
     inkscape:cx="194.95578"
     inkscape:cy="1.3613259"
     inkscape:document-units="mm"
     inkscape:current-layer="layer1"
     showgrid="false"
     inkscape:window-width="2496"
     inkscape:window-height="1417"
     inkscape:window-x="56"
     inkscape:window-y="-8"
     inkscape:window-maximized="1" />
  <metadata
     id="metadata5">
    <rdf:RDF>
      <cc:Work
         rdf:about="">
        <dc:format>image/svg+xml</dc:format>
        <dc:type
           rdf:resource="http://purl.org/dc/dcmitype/StillImage" />
        <dc:title></dc:title>
      </cc:Work>
    </rdf:RDF>
  </metadata>
  <g
     inkscape:label="Layer 1"
     inkscape:groupmode="layer"
     id="layer1"
     transform="translate(-50.599097,-146.05897)">
    <g
       aria-label="blinddichten"
       style="font-style:normal;font-variant:normal;font-weight:normal;font-stretch:normal;font-size:10.58333302px;line-height:1.25;font-family:Neucha;-inkscape-font-specification:Neucha;letter-spacing:0px;word-spacing:0px;fill:#253d25;fill-opacity:1;stroke:none;stroke-width:0.26458332"
       id="text23">
      <path
         d="m 51.77043,160.5944 -0.964627,0.18948 -0.206706,-13.60812 q 0.482314,-0.24116 1.309137,-0.39619 -0.01723,0.39619 -0.01723,1.24024 0,1.86035 0.137804,3.68625 0.826823,-0.46509 1.756999,-0.46509 0.964627,0 1.63642,0.46509 0.671794,0.44786 0.999078,1.24023 0.327284,0.79237 0.465088,1.60197 0.137804,0.8096 0.137804,1.757 0,1.03353 -0.327284,1.99816 -0.310059,0.9474 -1.102431,1.67087 -0.775147,0.70624 -1.894803,0.70624 -0.964626,0 -1.912028,-0.60289 -0.01723,0.17225 -0.01723,0.51676 z m 0.206706,-7.20025 -0.05168,5.54661 q 0.103353,0.31006 0.637343,0.49954 0.551215,0.17225 1.188558,0.17225 0.602892,0 0.999078,-0.22393 0.413411,-0.24116 0.620117,-0.67179 0.206705,-0.44787 0.275607,-0.93018 0.08613,-0.48231 0.08613,-1.10243 0,-0.63734 -0.0689,-1.24023 -0.0689,-0.62012 -0.275608,-1.34359 -0.206706,-0.7407 -0.671793,-1.18856 -0.465088,-0.44786 -1.154107,-0.44786 -0.499539,0 -0.947402,0.25838 -0.430637,0.24116 -0.637342,0.67179 z"
         style="font-style:normal;font-variant:normal;font-weight:normal;font-stretch:normal;font-size:17.63888931px;font-family:Neucha;-inkscape-font-specification:Neucha;fill:#253d25;fill-opacity:1;stroke-width:0.26458332"
         id="path5349"
         inkscape:connector-curvature="0" />
      <path
         d="m 58.798425,148.45044 0.792372,0.17226 0.37896,11.14488 q -0.155029,0.53399 -0.602891,0.53399 -0.310059,0 -0.602892,-0.24116 -0.275608,-0.25838 -0.34451,-0.62011 z"
         style="font-style:normal;font-variant:normal;font-weight:normal;font-stretch:normal;font-size:17.63888931px;font-family:Neucha;-inkscape-font-specification:Neucha;fill:#253d25;fill-opacity:1;stroke-width:0.26458332"
         id="path5351"
         inkscape:connector-curvature="0" />
      <path
         d="m 61.761207,151.41322 0.792372,0.17226 q 0.137803,1.41249 0.241156,4.44417 0.103353,3.01446 0.137804,3.73793 -0.155029,0.53399 -0.602892,0.53399 -0.310058,0 -0.602891,-0.24116 -0.275608,-0.25838 -0.34451,-0.62011 0.03445,-0.70625 0.137804,-3.66903 0.103353,-2.98001 0.241157,-4.35805 z m 0.241156,-3.08336 q 0.465088,0 0.775147,0.41342 0.310058,0.39618 0.310058,0.91295 0,0.37896 -0.18948,0.62011 -0.172255,0.22393 -0.482313,0.22393 -0.482314,0 -0.757921,-0.39618 -0.275608,-0.39619 -0.275608,-0.93018 0,-0.37896 0.155029,-0.60289 0.172255,-0.24116 0.465088,-0.24116 z"
         style="font-style:normal;font-variant:normal;font-weight:normal;font-stretch:normal;font-size:17.63888931px;font-family:Neucha;-inkscape-font-specification:Neucha;fill:#253d25;fill-opacity:1;stroke-width:0.26458332"
         id="path5353"
         inkscape:connector-curvature="0" />
      <path
         d="m 65.688616,153.37693 0.0689,6.82129 q -0.258382,0.1378 -0.620117,0.1378 -0.275608,0 -0.620117,-0.0861 0.05168,-1.0852 0.0689,-4.27191 0.01723,-3.18672 0.137804,-4.71978 l 0.775147,0.17225 0.05168,0.96463 q 0.912951,-0.96463 2.101509,-0.96463 0.602891,0 0.964626,0.0861 0.361735,0.0861 0.689019,0.43063 0.34451,0.32729 0.516765,0.8785 0.172255,0.55122 0.310058,1.58475 0.137804,1.0163 0.189481,2.39434 0.0689,1.36081 0.08613,3.44509 -0.103353,0.0345 -0.396186,0.0345 -0.620117,0 -0.964627,-0.15503 -0.0689,-0.27561 -0.0689,-0.91295 0,-0.32729 0.01723,-1.22301 0.03445,-0.91295 0.03445,-1.41249 0,-0.82682 -0.0689,-1.44694 -0.05168,-0.62012 -0.223931,-1.22301 -0.15503,-0.60289 -0.499539,-0.93018 -0.327284,-0.32728 -0.826823,-0.32728 -0.568441,0 -0.895725,0.0861 -0.310059,0.0861 -0.447862,0.2067 -0.120579,0.12058 -0.378961,0.43064 z"
         style="font-style:normal;font-variant:normal;font-weight:normal;font-stretch:normal;font-size:17.63888931px;font-family:Neucha;-inkscape-font-specification:Neucha;fill:#253d25;fill-opacity:1;stroke-width:0.26458332"
         id="path5355"
         inkscape:connector-curvature="0" />
      <path
         d="m 78.022058,160.71498 -0.947401,-0.18948 q 0,-0.34451 -0.01723,-0.51676 -0.91295,0.58566 -1.929253,0.58566 -1.567519,0 -2.446018,-1.34358 -0.861274,-1.34359 -0.861274,-3.04891 0,-0.8785 0.120578,-1.65365 0.137804,-0.77514 0.447863,-1.58474 0.327284,-0.82683 0.999077,-1.30914 0.689019,-0.48231 1.653646,-0.48231 0.947401,0 1.774224,0.46509 0.137804,-1.8259 0.137804,-3.68626 0,-0.84404 -0.01722,-1.24023 0.826823,0.15503 1.309136,0.39619 z m -1.102431,-1.84312 -0.05168,-5.54661 q -0.206706,-0.43063 -0.654568,-0.67179 -0.430637,-0.25838 -0.930176,-0.25838 -0.671794,0 -1.154107,0.43063 -0.465088,0.43064 -0.671794,1.15411 -0.18948,0.70625 -0.275607,1.32636 -0.0689,0.62012 -0.0689,1.30914 0,2.92833 1.963704,2.92833 0.654568,0 1.188558,-0.17225 0.551215,-0.18948 0.654568,-0.49954 z"
         style="font-style:normal;font-variant:normal;font-weight:normal;font-stretch:normal;font-size:17.63888931px;font-family:Neucha;-inkscape-font-specification:Neucha;fill:#253d25;fill-opacity:1;stroke-width:0.26458332"
         id="path5357"
         inkscape:connector-curvature="0" />
      <path
         d="m 85.842426,160.71498 -0.947402,-0.18948 q 0,-0.34451 -0.01723,-0.51676 -0.91295,0.58566 -1.929254,0.58566 -1.567518,0 -2.446018,-1.34358 -0.861273,-1.34359 -0.861273,-3.04891 0,-0.8785 0.120578,-1.65365 0.137804,-0.77514 0.447862,-1.58474 0.327284,-0.82683 0.999078,-1.30914 0.689019,-0.48231 1.653646,-0.48231 0.947401,0 1.774224,0.46509 0.137804,-1.8259 0.137804,-3.68626 0,-0.84404 -0.01722,-1.24023 0.826822,0.15503 1.309136,0.39619 z m -1.102431,-1.84312 -0.05168,-5.54661 q -0.206706,-0.43063 -0.654569,-0.67179 -0.430637,-0.25838 -0.930175,-0.25838 -0.671794,0 -1.154107,0.43063 -0.465088,0.43064 -0.671794,1.15411 -0.18948,0.70625 -0.275608,1.32636 -0.0689,0.62012 -0.0689,1.30914 0,2.92833 1.963705,2.92833 0.654568,0 1.188558,-0.17225 0.551215,-0.18948 0.654568,-0.49954 z"
         style="font-style:normal;font-variant:normal;font-weight:normal;font-stretch:normal;font-size:17.63888931px;font-family:Neucha;-inkscape-font-specification:Neucha;fill:#253d25;fill-opacity:1;stroke-width:0.26458332"
         id="path5359"
         inkscape:connector-curvature="0" />
      <path
         d="m 87.84058,151.41322 0.792372,0.17226 q 0.137804,1.41249 0.241157,4.44417 0.103353,3.01446 0.137804,3.73793 -0.15503,0.53399 -0.602892,0.53399 -0.310059,0 -0.602892,-0.24116 -0.275608,-0.25838 -0.344509,-0.62011 0.03445,-0.70625 0.137803,-3.66903 0.103353,-2.98001 0.241157,-4.35805 z m 0.241157,-3.08336 q 0.465088,0 0.775146,0.41342 0.310059,0.39618 0.310059,0.91295 0,0.37896 -0.18948,0.62011 -0.172255,0.22393 -0.482314,0.22393 -0.482313,0 -0.757921,-0.39618 -0.275607,-0.39619 -0.275607,-0.93018 0,-0.37896 0.155029,-0.60289 0.172255,-0.24116 0.465088,-0.24116 z"
         style="font-style:normal;font-variant:normal;font-weight:normal;font-stretch:normal;font-size:17.63888931px;font-family:Neucha;-inkscape-font-specification:Neucha;fill:#253d25;fill-opacity:1;stroke-width:0.26458332"
         id="path5361"
         inkscape:connector-curvature="0" />
      <path
         d="m 96.401642,151.72328 -0.08613,0.7407 q -0.72347,-0.10335 -1.240235,-0.10335 -1.188558,0 -1.963704,0.72347 -0.775147,0.70624 -1.06798,1.68809 -0.275608,0.96463 -0.275608,2.15319 0,0.55121 0.0689,0.98185 0.0689,0.43064 0.241157,0.84405 0.18948,0.41341 0.568441,0.65457 0.396186,0.22393 0.964627,0.22393 0.757921,0 1.929253,-0.29284 0.361735,-0.1378 0.568441,-0.1378 0.413411,0 0.499539,0.96463 -1.515842,0.48231 -2.807753,0.48231 -1.877577,0 -2.549371,-0.91295 -0.654568,-0.93018 -0.654568,-2.99723 0,-1.20579 0.155029,-2.10151 0.172255,-0.91295 0.585667,-1.6881 0.413411,-0.79237 1.188557,-1.20578 0.792372,-0.41341 1.929254,-0.41341 1.274685,0 1.946479,0.39618 z"
         style="font-style:normal;font-variant:normal;font-weight:normal;font-stretch:normal;font-size:17.63888931px;font-family:Neucha;-inkscape-font-specification:Neucha;fill:#253d25;fill-opacity:1;stroke-width:0.26458332"
         id="path5363"
         inkscape:connector-curvature="0" />
      <path
         d="m 97.572973,147.86478 0.895725,0.2067 q 0.05168,0.70625 0.0689,2.25654 0.03445,1.55029 0.0689,2.13596 0.930176,-0.98185 2.239312,-0.98185 1.17134,0 2.01539,0.82682 0.86127,0.82682 0.86127,2.20486 v 5.66718 q -0.22393,0.10336 -0.56844,0.10336 -0.37896,0 -0.68902,-0.0689 0,-0.1378 0,-0.41341 0.0172,-0.29283 0.0172,-0.43063 0,-0.6718 -0.0517,-2.30822 -0.0517,-1.65364 -0.0517,-2.75607 -0.25838,-1.58475 -1.60197,-1.58475 -0.58566,0 -1.154109,0.32729 -0.56844,0.31005 -0.826823,0.74069 0.05168,1.08521 0.0689,3.27284 0.01723,2.18764 0.05168,3.15226 -0.413412,0.0689 -0.706245,0.0689 -0.430637,0 -0.72347,-0.10336 0.03445,-0.84405 0.03445,-2.66995 0,-0.80959 -0.01723,-2.96278 -0.01723,-2.17041 -0.01723,-3.7207 0.01723,-1.56752 0.08613,-2.96278 z"
         style="font-style:normal;font-variant:normal;font-weight:normal;font-stretch:normal;font-size:17.63888931px;font-family:Neucha;-inkscape-font-specification:Neucha;fill:#253d25;fill-opacity:1;stroke-width:0.26458332"
         id="path5365"
         inkscape:connector-curvature="0" />
      <path
         d="m 109.83751,151.92999 0.18949,0.77515 q -0.46509,0.0344 -1.42972,0.18948 -0.96463,0.1378 -1.44694,0.17225 0.0861,0.60289 0.10335,1.58474 0.0172,0.98186 0.0344,1.70533 0.0345,0.70624 0.15503,1.42971 0.13781,0.70625 0.53399,1.08521 0.41341,0.37896 1.10243,0.37896 0.51677,0 1.29191,-0.24116 0.32729,0.63734 0.48232,0.93018 -1.36081,0.48231 -2.75608,0.48231 -0.51676,0 -0.89572,-0.31006 -0.37896,-0.31006 -0.58567,-0.77515 -0.20671,-0.46508 -0.34451,-1.17133 -0.12058,-0.72347 -0.15503,-1.36081 -0.0345,-0.63734 -0.0345,-1.46417 0,-0.44786 0,-1.24023 0.0172,-0.79237 0.0172,-1.08521 -0.17226,0.0172 -0.8096,0.0345 -0.63734,0 -0.7407,0 -0.12058,-1.15411 -0.12058,-1.18856 0.12058,0.0345 0.39619,0.0345 0.15503,0 0.49954,-0.0172 0.34451,-0.0344 0.51676,-0.0344 0.0689,0 0.17226,0.0172 0.12058,0 0.15503,0 0.0689,-1.89481 0.15503,-3.08336 l 0.77514,0.18948 q 0.0172,0.41341 0.0172,0.89572 0.0172,0.46509 0.0172,1.05076 0.0172,0.56844 0.0172,0.8785 0.44786,0.0344 1.34359,0.0689 0.89572,0.0345 1.34358,0.0689 z"
         style="font-style:normal;font-variant:normal;font-weight:normal;font-stretch:normal;font-size:17.63888931px;font-family:Neucha;-inkscape-font-specification:Neucha;fill:#253d25;fill-opacity:1;stroke-width:0.26458332"
         id="path5367"
         inkscape:connector-curvature="0" />
      <path
         d="m 117.72678,158.59625 0.17226,0.75792 q -0.75792,0.27561 -2.25654,0.62012 -1.48139,0.32728 -2.20486,0.32728 -0.7407,0 -1.29191,-0.48231 -0.55122,-0.49954 -0.82683,-1.25746 -0.2756,-0.77515 -0.41341,-1.51584 -0.12057,-0.75793 -0.12057,-1.4814 0,-4.30636 3.89295,-4.30636 0.93018,0 1.63642,0.60289 0.70625,0.58566 0.70625,1.53306 0,0.51677 -0.29284,0.91296 -0.2756,0.39618 -0.68901,0.63734 -0.39619,0.22393 -1.03353,0.41341 -0.62012,0.18948 -1.10243,0.27561 -0.48232,0.0861 -1.15411,0.18948 -0.67179,0.10335 -0.93018,0.15503 0.0172,0.49954 0.0517,0.8785 0.0517,0.37896 0.17225,0.82682 0.13781,0.43064 0.34451,0.72347 0.22394,0.27561 0.6029,0.46509 0.37896,0.18948 0.89572,0.18948 0.62012,0 1.51584,-0.10336 0.89573,-0.12057 1.58475,-0.24115 0.70624,-0.12058 0.74069,-0.12058 z M 111.88735,154.91 q 2.34266,-0.6718 3.84128,-1.41249 -0.12058,-0.56844 -0.32729,-0.82683 -0.2067,-0.25838 -0.62011,-0.25838 -1.05076,0 -1.91203,0.72347 -0.84405,0.72347 -0.98185,1.77423 z"
         style="font-style:normal;font-variant:normal;font-weight:normal;font-stretch:normal;font-size:17.63888931px;font-family:Neucha;-inkscape-font-specification:Neucha;fill:#253d25;fill-opacity:1;stroke-width:0.26458332"
         id="path5369"
         inkscape:connector-curvature="0" />
      <path
         d="m 119.77662,153.37693 0.0689,6.82129 q -0.25838,0.1378 -0.62012,0.1378 -0.27561,0 -0.62012,-0.0861 0.0517,-1.0852 0.0689,-4.27191 0.0172,-3.18672 0.1378,-4.71978 l 0.77515,0.17225 0.0517,0.96463 q 0.91295,-0.96463 2.10151,-0.96463 0.60289,0 0.96463,0.0861 0.36173,0.0861 0.68902,0.43063 0.34451,0.32729 0.51676,0.8785 0.17226,0.55122 0.31006,1.58475 0.1378,1.0163 0.18948,2.39434 0.0689,1.36081 0.0861,3.44509 -0.10335,0.0345 -0.39619,0.0345 -0.62011,0 -0.96462,-0.15503 -0.0689,-0.27561 -0.0689,-0.91295 0,-0.32729 0.0172,-1.22301 0.0344,-0.91295 0.0344,-1.41249 0,-0.82682 -0.0689,-1.44694 -0.0517,-0.62012 -0.22393,-1.22301 -0.15503,-0.60289 -0.49954,-0.93018 -0.32729,-0.32728 -0.82682,-0.32728 -0.56845,0 -0.89573,0.0861 -0.31006,0.0861 -0.44786,0.2067 -0.12058,0.12058 -0.37896,0.43064 z"
         style="font-style:normal;font-variant:normal;font-weight:normal;font-stretch:normal;font-size:17.63888931px;font-family:Neucha;-inkscape-font-specification:Neucha;fill:#253d25;fill-opacity:1;stroke-width:0.26458332"
         id="path5371"
         inkscape:connector-curvature="0" />
    </g>
    <rect
       style="fill:#7aa667;fill-opacity:0;stroke:#7aa667;stroke-width:1.27259409;stroke-miterlimit:4;stroke-dasharray:none;stroke-opacity:1"
       id="rect4533"
       width="11.20224"
       height="13.980062"
       x="130.91824"
       y="146.69527"
       ry="1.1002827"
       rx="1.4234889" />
    <rect
       style="fill:#7aa667;fill-opacity:1;stroke:none;stroke-width:0.91990221;stroke-miterlimit:4;stroke-dasharray:none;stroke-opacity:1"
       id="rect4537"
       width="2.6354492"
       height="0.95585197"
       x="129.6255"
       y="148.39587"
       rx="0.2512373"
       ry="0.2169777" />
    <rect
       style="fill:#7aa667;fill-opacity:1;stroke:none;stroke-width:0.91990221;stroke-miterlimit:4;stroke-dasharray:none;stroke-opacity:1"
       id="rect4537-8"
       width="2.6354492"
       height="0.95585197"
       x="129.6255"
       y="150.35948"
       rx="0.2512373"
       ry="0.2169777" />
    <rect
       style="fill:#7aa667;fill-opacity:1;stroke:none;stroke-width:0.91990221;stroke-miterlimit:4;stroke-dasharray:none;stroke-opacity:1"
       id="rect4537-4"
       width="2.6354492"
       height="0.95585197"
       x="129.6255"
       y="152.32307"
       rx="0.2512373"
       ry="0.2169777" />
    <rect
       style="fill:#7aa667;fill-opacity:1;stroke:none;stroke-width:0.91990221;stroke-miterlimit:4;stroke-dasharray:none;stroke-opacity:1"
       id="rect4537-0"
       width="2.6354492"
       height="0.95585197"
       x="129.6255"
       y="154.28668"
       rx="0.2512373"
       ry="0.2169777" />
    <rect
       style="fill:#7aa667;fill-opacity:1;stroke:none;stroke-width:0.91990221;stroke-miterlimit:4;stroke-dasharray:none;stroke-opacity:1"
       id="rect4537-5"
       width="2.6354492"
       height="0.95585197"
       x="129.6255"
       y="156.25027"
       rx="0.2512373"
       ry="0.2169777" />
    <rect
       style="fill:#7aa667;fill-opacity:1;stroke:none;stroke-width:0.91990221;stroke-miterlimit:4;stroke-dasharray:none;stroke-opacity:1"
       id="rect4537-01"
       width="2.6354492"
       height="0.95585197"
       x="129.6255"
       y="158.2139"
       rx="0.2512373"
       ry="0.2169777" />
  </g>
</svg>
