<?xml version="1.0" encoding="UTF-8" standalone="no"?>
<!-- Created with Inkscape (http://www.inkscape.org/) -->

<svg
   xmlns:dc="http://purl.org/dc/elements/1.1/"
   xmlns:cc="http://creativecommons.org/ns#"
   xmlns:rdf="http://www.w3.org/1999/02/22-rdf-syntax-ns#"
   xmlns:svg="http://www.w3.org/2000/svg"
   xmlns="http://www.w3.org/2000/svg"
   xmlns:sodipodi="http://sodipodi.sourceforge.net/DTD/sodipodi-0.dtd"
   xmlns:inkscape="http://www.inkscape.org/namespaces/inkscape"
   width="36.323471mm"
   height="26.66186mm"
   viewBox="0 0 36.323471 26.66186"
   version="1.1"
   id="svg8"
   inkscape:version="0.92.3 (2405546, 2018-03-11)"
   sodipodi:docname="random.svg">
  <defs
     id="defs2" />
  <sodipodi:namedview
     id="base"
     pagecolor="#ffffff"
     bordercolor="#666666"
     borderopacity="1.0"
     inkscape:pageopacity="0.0"
     inkscape:pageshadow="2"
     inkscape:zoom="3.959798"
     inkscape:cx="33.889962"
     inkscape:cy="96.261549"
     inkscape:document-units="mm"
     inkscape:current-layer="layer1"
     showgrid="false"
     inkscape:window-width="2496"
     inkscape:window-height="1417"
     inkscape:window-x="56"
     inkscape:window-y="-8"
     inkscape:window-maximized="1" />
  <metadata
     id="metadata5">
    <rdf:RDF>
      <cc:Work
         rdf:about="">
        <dc:format>image/svg+xml</dc:format>
        <dc:type
           rdf:resource="http://purl.org/dc/dcmitype/StillImage" />
        <dc:title></dc:title>
      </cc:Work>
    </rdf:RDF>
  </metadata>
  <g
     inkscape:label="Layer 1"
     inkscape:groupmode="layer"
     id="layer1"
     transform="translate(-50.154836,-149.81051)">
    <path
       style="fill:#000000;fill-opacity:1;stroke:none;stroke-width:4.796;stroke-linejoin:round;stroke-miterlimit:4;stroke-dasharray:none;stroke-opacity:1;paint-order:normal"
       d="m 51.648677,166.97479 c 1.302674,0.75312 2.91866,0.21208 4.330672,0.10812 0.765565,-0.20961 1.011869,0.0699 0.130034,0.33869 4.844905,-3.7183 8.803491,-8.43162 13.488182,-12.32995 2.259802,-1.66096 5.268759,-2.0956 7.964631,-1.43777 0.924922,-0.55289 3.577365,0.38614 1.956727,1.40756 -1.520419,0.62084 -3.209473,0.27793 -4.803692,0.22385 -1.012426,0.0315 -3.200741,0.15925 -3.200741,0.15925 -4.541693,3.45676 -7.877178,7.16723 -12.396987,10.64947 -1.888682,1.61692 -4.281631,2.80831 -6.794642,2.92424 -0.971645,0.16974 -3.302412,-0.91425 -1.509168,-1.52579 0.285345,-0.16061 0.572825,-0.32023 0.834984,-0.51767 z"
       id="path948"
       inkscape:connector-curvature="0"
       sodipodi:nodetypes="cccccccccccc" />
    <path
       style="fill:#000000;fill-opacity:1;stroke:none;stroke-width:4.796;stroke-linejoin:round;stroke-miterlimit:4;stroke-dasharray:none;stroke-opacity:1;paint-order:normal"
       id="path950"
       d="m 79.437158,149.81053 c 0.885563,0.28076 1.730216,0.65718 2.565026,1.06017 0.729769,0.32912 1.396612,0.7714 2.084573,1.17591 0.467183,0.35742 1.06162,0.55104 1.49152,0.95316 0.05748,0.14535 0.121454,0.23254 0.07551,0.39495 -0.10845,0.38337 -0.571785,0.64612 -0.86878,0.85766 -0.55055,0.3791 -1.107879,0.74692 -1.599086,1.20243 -0.3819,0.34746 -0.700178,0.74693 -0.975503,1.18164 -0.133967,0.21703 -0.280689,0.42573 -0.423445,0.63697 0,0 -2.569503,1.12688 -2.569503,1.12688 v 0 c 0.136512,-0.21536 0.286776,-0.41925 0.427207,-0.63204 0.274402,-0.44631 0.551005,-0.8921 0.951513,-1.24007 0.46242,-0.50129 1.032668,-0.86944 1.591053,-1.25414 0.193011,-0.12976 0.393375,-0.24917 0.579181,-0.38905 0.06954,-0.0523 0.131522,-0.11405 0.197284,-0.17108 0.04489,-0.0422 0.086,-0.0889 0.134673,-0.12671 0.02429,-0.0189 0.06241,-0.0183 0.08226,-0.0418 0.01381,-0.0164 0.0047,-0.0426 0.007,-0.0639 -0.430278,-0.37047 -0.989065,-0.5777 -1.443633,-0.91727 -0.677809,-0.40474 -1.342628,-0.83361 -2.062559,-1.16268 -0.826455,-0.40344 -1.673468,-0.76337 -2.562283,-1.00802 0,0 2.318028,-1.58303 2.318028,-1.58303 z"
       inkscape:connector-curvature="0" />
    <path
       style="fill:#000000;fill-opacity:1;stroke:none;stroke-width:4.796;stroke-linejoin:round;stroke-miterlimit:4;stroke-dasharray:none;stroke-opacity:1;paint-order:normal"
       d="m 52.606672,151.63255 c 3.418304,0.57606 7.175876,0.25727 10.202569,2.22793 1.042927,0.72992 1.44267,2.06039 1.881833,3.20253 0.924559,2.83671 1.180241,6.13415 3.471199,8.29806 1.794771,2.51714 4.981274,3.31841 7.87501,3.74109 1.091619,0.29454 2.462736,0.11199 3.36945,0.74416 0.869211,1.39657 -1.399553,1.46878 -2.299974,1.39112 -1.744278,-0.0569 -3.467758,-0.42977 -5.132265,-0.90585 -3.922846,-0.43575 -6.943743,-3.61221 -8.409184,-7.10387 -0.796105,-1.72563 -1.127138,-3.60463 -1.421109,-5.46475 -0.523019,-2.07171 -2.66672,-3.08552 -4.581635,-3.50936 -1.643219,-0.40875 -3.322961,-0.59028 -5.010076,-0.65904 -0.852795,0.11073 -2.435182,-0.67717 -1.080293,-1.36048 0.359363,-0.23383 0.745433,-0.42321 1.134475,-0.60154 z"
       id="path952"
       inkscape:connector-curvature="0" />
    <path
       style="fill:#000000;fill-opacity:1;stroke:none;stroke-width:4.796;stroke-linejoin:round;stroke-miterlimit:4;stroke-dasharray:none;stroke-opacity:1;paint-order:normal"
       id="path954"
       d="m 80.545574,165.48688 c 0.569312,0.65745 1.215985,1.2397 1.818656,1.8648 0.400732,0.45109 0.848196,0.8552 1.322001,1.22721 0.462121,0.32429 0.843915,0.73753 1.271995,1.101 0.423637,0.3734 0.841237,0.7516 1.291981,1.0932 0.114912,0.10932 0.256196,0.25379 0.223237,0.43455 -0.02931,0.16076 -0.131529,0.23283 -0.262458,0.30994 -0.872527,0.51387 -1.752704,1.01464 -2.629056,1.52196 -0.280623,0.14797 -0.560084,0.29739 -0.84005,0.4465 -0.08935,0.0476 -0.353163,0.1981 -0.265337,0.14775 2.288466,-1.31183 2.856455,-1.69387 1.965372,-1.10444 -1.134755,0.76866 1.355191,-0.9116 -2.793619,1.64255 -0.72445,0.446 2.942207,-1.70957 2.212155,-1.2728 -0.853411,0.51057 -1.719633,0.99944 -2.582283,1.49424 -0.0654,0.0375 -0.266845,0.14035 -0.20161,0.10255 0.737106,-0.42715 1.478325,-0.84717 2.217489,-1.27075 -1.128101,0.66353 -2.216351,1.50234 -3.496239,1.8487 -0.165491,0.0662 -0.294984,0.18636 -0.455019,0.26323 -0.05374,0.0258 -0.216763,0.0985 -0.165251,0.0685 3.527877,-2.05645 2.784806,-1.60899 1.964333,-1.11179 -0.591992,0.3604 -1.171464,0.73854 -1.731405,1.14704 0,0 -2.596456,1.03155 -2.596456,1.03155 v 0 c 0.551881,-0.41935 1.126386,-0.8031 1.713081,-1.16951 1.143974,-0.68268 2.260907,-1.44668 3.494252,-1.95078 0.180258,-0.0655 0.360307,-0.13437 0.535223,-0.21336 0.05708,-0.0258 0.222761,-0.11431 0.168775,-0.0826 -4.11838,2.422 -2.818437,1.64634 -2.049291,1.18679 0.862944,-0.50227 1.725235,-1.00568 2.588835,-1.50683 0.06538,-0.0379 0.263424,-0.14844 0.198088,-0.11042 -0.739796,0.43056 -2.957534,1.72499 -2.221503,1.28803 8.579409,-5.09329 -1.484836,0.98184 0.586801,-0.36315 1.266629,-0.83366 2.604471,-1.54799 3.933569,-2.27411 -0.72317,0.42011 -1.447364,0.83845 -2.16951,1.26032 -0.05897,0.0345 0.115179,-0.0762 0.179904,-0.098 0.04844,-0.0163 0.101682,-0.0108 0.152699,-0.0139 0.02286,-0.001 0.052,0.0161 0.06867,5.3e-4 0.04761,-0.0448 -0.214273,-0.18678 -0.117827,-0.15693 -0.443127,-0.35648 -0.868005,-0.73289 -1.295003,-1.10807 -0.418216,-0.36936 -0.814319,-0.76133 -1.267494,-1.08998 -0.477512,-0.38491 -0.928056,-0.80282 -1.330317,-1.26688 -0.600147,-0.63458 -1.240515,-1.23064 -1.840024,-1.86609 0,0 2.402639,-1.45043 2.402639,-1.45043 z"
       inkscape:connector-curvature="0" />
  </g>
</svg>
